<?xml version="1.0" encoding="UTF-8"?>
<svg width="1024px" height="1024px" viewBox="0 0 1024 1024" version="1.1" xmlns="http://www.w3.org/2000/svg" xmlns:xlink="http://www.w3.org/1999/xlink">
    <g stroke="none" fill="none">
        <path d="M508.975757,793.419928 C467.276751,793.419928 427.156765,770.517841 407.596258,731.152895 L245.053919,402.339822 C217.662764,347.273307 240.832459,280.755748 296.80709,253.856898 C352.781722,226.894606 420.292864,249.701533 447.684019,304.768048 L610.226358,633.581121 C637.585288,688.647636 614.415593,755.165195 558.473186,782.095766 C542.521866,789.772089 525.6038,793.419928 508.975757,793.419928 M784.147304,353.68716 C784.147304,292.276577 733.586454,242.539079 671.231294,242.539079 C608.84391,242.539079 558.28306,292.276577 558.28306,353.68716 C558.28306,371.513993 562.955668,388.072012 570.496292,403.012293 L671.231294,607.862267 L771.934071,403.012293 C779.50692,388.072012 784.147304,371.513993 784.147304,353.68716" fill="#FFFFFF"></path>
    </g>
</svg>
